<?xml version="1.0" standalone="no"?><!DOCTYPE svg PUBLIC "-//W3C//DTD SVG 1.1//EN" "http://www.w3.org/Graphics/SVG/1.1/DTD/svg11.dtd"><svg t="1571024013254" class="icon" viewBox="0 0 1024 1024" version="1.1" xmlns="http://www.w3.org/2000/svg" p-id="2837" width="12" height="12" xmlns:xlink="http://www.w3.org/1999/xlink"><defs><style type="text/css"></style></defs><path d="M521.404082 590.889796s-0.522449 0 0 0c-12.016327 0-20.897959-9.926531-20.89796-21.420408 0.522449-18.808163 1.567347-31.869388 4.179592-41.27347 2.612245-9.926531 6.791837-18.808163 12.538776-26.644898 4.179592-5.746939 10.44898-9.926531 18.808163-16.195918 5.746939-4.179592 12.016327-8.881633 17.763265-13.583673 22.987755-20.37551 32.391837-33.436735 36.571429-40.228572 5.22449-9.404082 7.836735-19.853061 7.836735-31.346939 0-19.853061-7.314286-36.571429-22.987755-50.677551-16.195918-14.628571-37.616327-21.942857-65.828572-21.942857-27.689796 0-41.273469 7.314286-55.902041 20.37551-15.15102 13.583673-24.555102 33.436735-27.689796 60.081633-1.567347 11.493878-12.016327 19.853061-23.510204 18.285714-11.493878-1.567347-19.853061-12.016327-18.285714-23.510204 4.702041-37.093878 18.285714-65.828571 41.795918-86.204081 24.555102-21.942857 48.587755-30.82449 83.591837-30.82449 38.661224 0 70.530612 10.971429 94.040816 32.914286 24.555102 22.465306 36.571429 49.632653 36.571429 81.50204 0 18.285714-4.179592 35.526531-13.061224 51.2-8.359184 14.628571-22.987755 31.869388-45.453062 51.2-7.314286 6.269388-14.628571 12.016327-20.37551 16.195919-3.657143 2.612245-8.359184 6.269388-9.926531 7.836734-2.612245 3.657143-4.179592 7.836735-5.746938 12.538776-1.044898 3.134694-2.612245 11.493878-2.612245 31.346939-1.044898 11.493878-9.926531 20.37551-21.420408 20.37551z" p-id="2838" fill="#999999"></path><path d="M520.881633 685.97551m-31.346939 0a31.346939 31.346939 0 1 0 62.693877 0 31.346939 31.346939 0 1 0-62.693877 0Z" p-id="2839" fill="#999999"></path><path d="M512 929.959184c-230.4 0-417.959184-187.559184-417.959184-417.959184s187.559184-417.959184 417.959184-417.959184 417.959184 187.559184 417.959184 417.959184-187.559184 417.959184-417.959184 417.959184z m0-794.122449c-207.412245 0-376.163265 168.75102-376.163265 376.163265s168.75102 376.163265 376.163265 376.163265 376.163265-168.75102 376.163265-376.163265-168.75102-376.163265-376.163265-376.163265z" p-id="2840" fill="#999999"></path></svg>