<?xml version="1.0" encoding="UTF-8"?>
<svg width="12px" height="12px" viewBox="0 0 12 12" version="1.1" xmlns="http://www.w3.org/2000/svg" xmlns:xlink="http://www.w3.org/1999/xlink">
    <!-- Generator: Sketch 58 (84663) - https://sketch.com -->
    <title>Shape</title>
    <desc>Created with Sketch.</desc>
    <g id="页面-1" stroke="none" stroke-width="1" fill="none" fill-rule="evenodd">
        <g id="重新选择封面" transform="translate(-606.000000, -1631.000000)" fill="#999999" fill-rule="nonzero">
            <g id="编组" transform="translate(504.000000, 1558.000000)">
                <g id="同步到圈子" transform="translate(0.000000, 68.000000)">
                    <g id="复选框/已选/全选备份" transform="translate(26.000000, 0.000000)">
                        <path d="M82,7.50000944 C80.9945009,7.50000944 80.1764831,8.3107131 80.1764831,9.30713425 C80.1764831,9.50859653 80.3398375,9.67193471 80.5411865,9.67193471 C80.7425355,9.67193471 80.9058899,9.50858035 80.9058899,9.30713425 C80.9058899,8.70282829 81.3865999,8.22936765 82.0000324,8.22936765 C82.6033189,8.22936765 83.0941749,8.72399397 83.0941749,9.33194081 C83.0941749,9.575249 82.7889716,9.88011241 82.4938658,10.1755419 C82.0912001,10.5777706 81.6353937,11.0336903 81.6353937,11.6304232 L81.6353937,12.2472215 C81.6353937,12.4485058 81.7987481,12.6119248 82.0000971,12.6119248 C82.2014461,12.6119248 82.3648005,12.4481821 82.3648005,12.2468816 L82.3648005,11.6301643 C82.3648005,11.3357705 82.6923183,11.0082365 83.0096901,10.6917708 C83.4098315,10.2916295 83.8237596,9.8780897 83.8237596,9.33210262 C83.8235169,8.32170048 83.0054344,7.50000944 81.9999191,7.50000944 L82,7.50000944 Z M81.4529611,13.8730302 C81.4529611,14.0163193 81.5118302,14.1585403 81.6131115,14.2598216 C81.7144575,14.3611191 81.8567919,14.4201338 82,14.4201338 C82.143289,14.4201338 82.285591,14.3610868 82.3868885,14.2598216 C82.488186,14.1585241 82.547136,14.0163031 82.547136,13.8730302 C82.547136,13.7298221 82.4881698,13.5875201 82.3868885,13.4862388 C82.285591,13.3848928 82.143289,13.3259104 82,13.3259104 C81.8567919,13.3259104 81.7144899,13.3848766 81.6131115,13.4862388 C81.511814,13.5875363 81.4529611,13.7298383 81.4529611,13.8730302 L81.4529611,13.8730302 Z M82.0001456,16.2498159 C79.1051083,16.2498159 76.7502488,13.8947623 76.7502488,11.0000485 C76.7502488,8.10517302 79.1052054,5.75003843 82.0001456,5.75003843 C84.8951021,5.75003843 87.2501557,8.10523775 87.2501557,11.0000485 C87.2501557,13.8948593 84.8951021,16.2498159 82.0001456,16.2498159 L82.0001456,16.2498159 Z M82,5 C78.6862286,5 76,7.68622856 76,11 C76,14.3137714 78.6862286,17 82,17 C85.3137714,17 88,14.3137714 88,11 C88,7.68622856 85.3137714,5 82,5 Z" id="Shape"></path>
                    </g>
                </g>
            </g>
        </g>
    </g>
</svg>