<?xml version="1.0" encoding="utf-8"?>
<!-- Generator: Adobe Illustrator 21.1.0, SVG Export Plug-In . SVG Version: 6.00 Build 0)  -->
<svg version="1.1" id="图层_1" xmlns="http://www.w3.org/2000/svg" xmlns:xlink="http://www.w3.org/1999/xlink" x="0px" y="0px"
	 viewBox="3 3 14 14" style="enable-background:new 0 0 20 20;" xml:space="preserve">
<title>Rectangle</title>
	<style>
		.st0{fill: #f85959}
	</style>
<desc>Created with Sketch.</desc>
<g id="Page-1">
	<path id="Combined-Shape" class="st0" d="M10,3c3.9,0,7,3.1,7,7s-3.1,7-7,7s-7-3.1-7-7S6.1,3,10,3z M10,6.3C9.2,6.3,8.6,6.5,8.1,7
		C7.6,7.4,7.4,8,7.4,8.8h1.2c0-0.5,0.1-0.8,0.3-1.1c0.2-0.3,0.6-0.4,1.1-0.4c0.4,0,0.7,0.1,0.9,0.3c0.2,0.2,0.3,0.5,0.3,0.9
		c0,0.3-0.1,0.5-0.3,0.8l-0.2,0.2c-0.7,0.6-1.1,1-1.3,1.3c-0.1,0.3-0.2,0.6-0.2,1v0.2h1.2v-0.2c0-0.3,0.1-0.5,0.2-0.7
		c0.1-0.2,0.3-0.4,0.5-0.5c0.5-0.4,0.8-0.7,0.9-0.8c0.3-0.3,0.4-0.8,0.4-1.3c0-0.6-0.2-1.1-0.7-1.5C11.3,6.5,10.7,6.3,10,6.3z
		 M9.9,12.7c-0.2,0-0.4,0.1-0.6,0.2c-0.2,0.1-0.2,0.3-0.2,0.6c0,0.2,0.1,0.4,0.2,0.6c0.1,0.2,0.3,0.2,0.6,0.2c0.2,0,0.4-0.1,0.6-0.2
		c0.2-0.2,0.2-0.3,0.2-0.6s-0.1-0.4-0.2-0.6C10.3,12.8,10.1,12.7,9.9,12.7z"/>
</g>
</svg>
