<svg class="icon" viewBox="0 0 1024 1024" xmlns="http://www.w3.org/2000/svg" width="200" height="200"><defs><style/></defs><path d="M561.17 509.06l296.857-295.32c14.037-13.968 14.108-36.6.14-50.638-13.998-14.068-36.592-14.108-50.629-.14L510.605 458.314 216.256 163.07c-13.933-13.967-36.597-14.037-50.635-.072-14.004 13.966-14.037 36.632-.07 50.67l294.277 295.174-296.714 295.14c-14.039 13.968-14.11 36.597-.143 50.638a35.722 35.722 0 0 0 25.385 10.56c9.13 0 18.267-3.47 25.25-10.42l296.787-295.212L807.43 857.483c6.983 7.022 16.153 10.53 25.353 10.53a35.73 35.73 0 0 0 25.282-10.46c13.999-13.966 14.037-36.592.072-50.63L561.17 509.06zm0 0"/></svg>